<?xml version="1.0" encoding="UTF-8" standalone="no"?>
<svg
   xmlns:dc="http://purl.org/dc/elements/1.1/"
   xmlns:cc="http://creativecommons.org/ns#"
   xmlns:rdf="http://www.w3.org/1999/02/22-rdf-syntax-ns#"
   xmlns:svg="http://www.w3.org/2000/svg"
   xmlns="http://www.w3.org/2000/svg"
   xmlns:xlink="http://www.w3.org/1999/xlink"
   xmlns:sodipodi="http://sodipodi.sourceforge.net/DTD/sodipodi-0.dtd"
   xmlns:inkscape="http://www.inkscape.org/namespaces/inkscape"
   width="800"
   height="480"
   id="svg3337"
   version="1.1"
   inkscape:version="1.0.1 (3bc2e813f5, 2020-09-07)"
   viewBox="0 0 800 480"
   sodipodi:docname="mock.svg"
   inkscape:export-filename=".\mock.png"
   inkscape:export-xdpi="96"
   inkscape:export-ydpi="96">
  <defs
     id="defs3339">
    <linearGradient
       gradientTransform="matrix(-2.1192219,0,0,-1.7774119,1085.7692,620.36918)"
       y2="220"
       x2="512.34332"
       y1="220"
       x1="84"
       gradientUnits="userSpaceOnUse"
       id="linearGradient1039"
       xlink:href="#linearGradient1035"
       inkscape:collect="always" />
    <linearGradient
       id="linearGradient1035"
       inkscape:collect="always">
      <stop
         id="stop1031"
         offset="0"
         style="stop-color:#e2e1c3;stop-opacity:1;" />
      <stop
         id="stop1033"
         offset="1"
         style="stop-color:#e2e1c3;stop-opacity:0;" />
    </linearGradient>
    <filter
       inkscape:collect="always"
       style="color-interpolation-filters:sRGB"
       id="filter1134"
       x="-0.04179785"
       width="1.0835958"
       y="-0.075168461"
       height="1.1503369">
      <feGaussianBlur
         inkscape:collect="always"
         stdDeviation="3.803169"
         id="feGaussianBlur1136" />
    </filter>
    <linearGradient
       inkscape:collect="always"
       xlink:href="#linearGradient952"
       id="linearGradient954"
       x1="252.95215"
       y1="218.76385"
       x2="384"
       y2="218.76385"
       gradientUnits="userSpaceOnUse"
       gradientTransform="matrix(2.1192219,0,0,2.1192219,-631.97624,-234.13275)" />
    <linearGradient
       inkscape:collect="always"
       id="linearGradient952">
      <stop
         style="stop-color:#607860;stop-opacity:1"
         offset="0"
         id="stop948" />
      <stop
         style="stop-color:#243524;stop-opacity:1"
         offset="1"
         id="stop950" />
    </linearGradient>
    <linearGradient
       y2="327.11591"
       x2="433.37793"
       y1="327.11591"
       x1="237.38087"
       gradientTransform="matrix(-2.1192219,0,0,2.1192219,918.42397,-461.13516)"
       gradientUnits="userSpaceOnUse"
       id="linearGradient966-5"
       xlink:href="#linearGradient1130"
       inkscape:collect="always" />
    <linearGradient
       inkscape:collect="always"
       id="linearGradient1130">
      <stop
         style="stop-color:#e3e1c4;stop-opacity:1"
         offset="0"
         id="stop1126" />
      <stop
         style="stop-color:#7c9c71;stop-opacity:1"
         offset="1"
         id="stop1128" />
    </linearGradient>
  </defs>
  <sodipodi:namedview
     id="base"
     pagecolor="#878787"
     bordercolor="#666666"
     borderopacity="1.0"
     inkscape:pageopacity="0"
     inkscape:pageshadow="2"
     inkscape:zoom="1.0144154"
     inkscape:cx="398.80776"
     inkscape:cy="259.0848"
     inkscape:document-units="px"
     inkscape:current-layer="layer1"
     showgrid="false"
     borderlayer="true"
     inkscape:snap-page="true"
     inkscape:snap-bbox="true"
     inkscape:snap-perpendicular="true"
     inkscape:window-width="1727"
     inkscape:window-height="1105"
     inkscape:window-x="87"
     inkscape:window-y="16"
     inkscape:window-maximized="0"
     showguides="true"
     inkscape:guide-bbox="true"
     inkscape:snap-center="true"
     inkscape:lockguides="false"
     inkscape:document-rotation="0">
    <sodipodi:guide
       position="415.36123,250.66145"
       orientation="1,0"
       id="guide910" />
  </sodipodi:namedview>
  <metadata
     id="metadata3342">
    <rdf:RDF>
      <cc:Work
         rdf:about="">
        <dc:format>image/svg+xml</dc:format>
        <dc:type
           rdf:resource="http://purl.org/dc/dcmitype/StillImage" />
        <dc:title />
      </cc:Work>
    </rdf:RDF>
  </metadata>
  <g
     id="layer1"
     inkscape:label="background"
     inkscape:groupmode="layer">
    <rect
       style="display:inline;fill:#568756;fill-opacity:1;stroke:none;stroke-width:5.44863;stroke-linecap:round;stroke-miterlimit:3.86644"
       id="rect873"
       width="800"
       height="480"
       x="-5.6843419e-14"
       y="-1.4210855e-14" />
    <path
       id="path1103"
       style="color:#000000;font-style:normal;font-variant:normal;font-weight:normal;font-stretch:normal;font-size:medium;line-height:normal;font-family:sans-serif;font-variant-ligatures:normal;font-variant-position:normal;font-variant-caps:normal;font-variant-numeric:normal;font-variant-alternates:normal;font-variant-east-asian:normal;font-feature-settings:normal;font-variation-settings:normal;text-indent:0;text-align:start;text-decoration:none;text-decoration-line:none;text-decoration-style:solid;text-decoration-color:#000000;letter-spacing:normal;word-spacing:normal;text-transform:none;writing-mode:lr-tb;direction:ltr;text-orientation:mixed;dominant-baseline:auto;baseline-shift:baseline;text-anchor:start;white-space:normal;shape-padding:0;shape-margin:0;inline-size:0;clip-rule:nonzero;display:inline;overflow:visible;visibility:visible;isolation:auto;mix-blend-mode:normal;color-interpolation:sRGB;color-interpolation-filters:linearRGB;solid-color:#000000;solid-opacity:1;vector-effect:none;fill:url(#linearGradient1039);fill-opacity:1;fill-rule:nonzero;stroke:none;stroke-width:8.61701;stroke-linecap:butt;stroke-linejoin:miter;stroke-miterlimit:3.86644;stroke-dasharray:none;stroke-dashoffset:0;stroke-opacity:1;color-rendering:auto;image-rendering:auto;shape-rendering:auto;text-rendering:auto;enable-background:accumulate;stop-color:#000000"
       d="M 411.78628,8.9394892 V 223.86665 l -411.78628,0 0,10.94379 411.78628,0 v 214.92718 h 8.6176 V 234.81044 H 800 V 223.86665 H 420.40388 V 8.9394892 Z"
       sodipodi:nodetypes="ccccccccccccc" />
    <path
       id="path960"
       style="color:#000000;font-style:normal;font-variant:normal;font-weight:normal;font-stretch:normal;font-size:medium;line-height:normal;font-family:sans-serif;font-variant-ligatures:normal;font-variant-position:normal;font-variant-caps:normal;font-variant-numeric:normal;font-variant-alternates:normal;font-variant-east-asian:normal;font-feature-settings:normal;font-variation-settings:normal;text-indent:0;text-align:start;text-decoration:none;text-decoration-line:none;text-decoration-style:solid;text-decoration-color:#000000;letter-spacing:normal;word-spacing:normal;text-transform:none;writing-mode:lr-tb;direction:ltr;text-orientation:mixed;dominant-baseline:auto;baseline-shift:baseline;text-anchor:start;white-space:normal;shape-padding:0;shape-margin:0;inline-size:0;clip-rule:nonzero;display:inline;overflow:visible;visibility:visible;isolation:auto;mix-blend-mode:normal;color-interpolation:sRGB;color-interpolation-filters:linearRGB;solid-color:#000000;solid-opacity:1;vector-effect:none;fill:url(#linearGradient954);fill-opacity:1;fill-rule:nonzero;stroke:none;stroke-width:21.1922;stroke-linecap:butt;stroke-linejoin:miter;stroke-miterlimit:4;stroke-dasharray:none;stroke-dashoffset:0;stroke-opacity:1;filter:url(#filter1134);color-rendering:auto;image-rendering:auto;shape-rendering:auto;text-rendering:auto;enable-background:accumulate;stop-color:#000000"
       d="m 19.535156,235.74676 c 8.28868,27.30355 16.629384,54.88199 25.38086,77.53711 4.371403,11.31626 8.828209,21.45645 13.916015,30.15039 4.880823,8.34031 10.894661,17.27022 21.589844,22.375 6.625938,3.16271 13.87901,3.84059 20.927735,1.91797 6.44362,-1.75758 11.42845,-5.32081 15.14062,-8.80469 7.34911,-6.89713 12.27433,-15.40154 16.91602,-24.76367 9.39513,-18.94964 17.71504,-43.72943 26.08984,-70.20898 8.37951,-26.49456 16.6505,-54.5745 24.73438,-78.48047 5.66962,-16.76639 11.34707,-30.1306 16.16211,-39.85742 2.14298,4.34264 4.40221,9.35396 6.76367,15.47851 7.82421,20.29234 16.0746,47.35264 24.36328,74.65625 8.28868,27.30355 16.62939,54.88199 25.38086,77.53711 4.3714,11.31626 8.82626,21.45645 13.91406,30.15039 4.88083,8.34031 10.89466,17.27022 21.58985,22.375 6.62593,3.16271 13.87901,3.84059 20.92773,1.91797 6.44362,-1.75758 11.42845,-5.32081 15.14063,-8.80469 4.76597,-4.47286 8.50728,-9.62946 11.81836,-15.25 3.56781,-4.49099 6.6871,-9.43365 9.65625,-14.73437 0.93226,-1.66438 1.85697,-3.37725 2.76953,-5.13281 l 1.33203,-2.56055 -0.15235,-2.89063 c -0.0492,-0.92331 -0.12242,-1.96005 -0.19726,-3.00781 6.1529,-15.38441 11.95339,-32.97608 17.7793,-51.39648 2.0099,-6.35498 4.01335,-12.80568 6.00976,-19.26367 l 0.71289,0.2207 3.11719,-10.125 c 9.7025,-31.48903 19.4486,-62.69312 28.31445,-83.12891 1.30655,-3.0116 2.62502,-5.65317 3.90625,-8.08594 4.8725,8.70265 11.09328,21.91125 17.26563,39.04102 8.01741,22.25031 16.09005,48.53642 24.40039,74.24414 6.18673,20.10392 12.45295,39.62473 18.94531,56.43164 4.3714,11.31626 8.82626,21.45645 13.91406,30.15039 4.88083,8.34031 10.89466,17.27022 21.58985,22.375 6.62593,3.16271 13.87901,3.84059 20.92773,1.91797 6.44362,-1.75758 11.42845,-5.32081 15.14063,-8.80469 7.3491,-6.89713 12.27432,-15.40154 16.91601,-24.76367 9.39513,-18.94964 17.71504,-43.72943 26.08985,-70.20898 8.3795,-26.49456 16.65049,-54.5745 24.73437,-78.48047 6.09728,-18.03106 12.21701,-32.18463 17.24805,-42.04492 4.8836,8.70069 11.13953,21.96538 17.34375,39.18359 16.07084,44.60055 32.35858,105.41252 50.35156,145.29102 4.20148,9.31175 8.83504,17.20003 15.39844,23.48632 7.11393,6.81364 17.08734,11.42952 28.10742,10.01172 10.23921,-1.31735 17.90045,-7.13347 23.33594,-12.80273 5.46244,-5.69738 9.83599,-12.34093 13.93359,-19.65625 0.93227,-1.66438 1.85502,-3.37725 2.76758,-5.13281 l 1.33398,-2.56055 -0.15429,-2.89063 c -0.50268,-9.42979 -2.541,-25.29635 -2.02735,-48.66211 l -20.52929,-3.91211 c -6.44693,17.42031 -12.77374,32.46489 -18.36524,42.44727 -1.41875,2.53287 -2.2984,3.36912 -3.56055,5.19727 -0.55979,-1.04957 -1.0428,-1.70329 -1.60937,-2.95899 -15.11353,-33.49665 -32.04804,-94.86282 -49.11523,-142.22851 -8.50285,-23.59752 -16.5573,-43.95393 -28.11329,-58.72461 -5.68934,-7.27205 -14.42344,-15.738865 -27.31836,-16.841795 -13.82968,-1.182842 -24.81085,7.32311 -31.49414,16.701165 -11.21159,15.73224 -19.22042,37.48811 -27.68554,62.52149 -8.49257,25.11447 -16.79897,53.35754 -24.9961,79.27539 -1.57915,4.993 -3.16298,9.87001 -4.74218,14.6582 l -0.25,-0.0469 c -6.44693,17.42031 -12.77374,32.46489 -18.36524,42.44727 -1.41875,2.53287 -2.2984,3.36912 -3.56055,5.19727 -0.55979,-1.04957 -1.0428,-1.70329 -1.60937,-2.95899 -8.58814,-19.0342 -17.77629,-47.11523 -27.23047,-76.46484 -1.07543,-3.52682 -2.14693,-7.0223 -3.22461,-10.57227 -8.28802,-27.3014 -16.62948,-54.90105 -25.37695,-77.58789 -4.36846,-11.32978 -8.81546,-21.4874 -13.89453,-30.20312 -4.87521,-8.36591 -10.85581,-17.274505 -21.4668,-22.441405 -3.91865,-1.908132 -8.04075,-2.806022 -12.12305,-2.958982 -4.07933,-0.1528 -8.14504,0.43163 -12.04492,1.931642 -5.89465,2.26721 -10.39818,5.91408 -13.91601,9.587885 -2.57968,2.33268 -4.85283,4.93392 -6.76368,7.61523 -11.21159,15.73224 -19.22042,37.48811 -27.68554,62.52149 -8.49257,25.11447 -16.79897,53.35754 -24.9961,79.27539 -7.65825,24.21409 -15.42703,46.64059 -22.24023,61.22656 -0.33251,-0.56558 -0.6629,-1.13494 -1.02149,-1.92969 -15.11352,-33.49665 -32.04608,-94.86282 -49.11328,-142.22851 -8.50284,-23.59752 -16.55729,-43.95393 -28.11328,-58.72461 -2.65174,-3.38943 -5.97493,-7.03028 -10.0625,-10.072265 -2.63368,-2.38795 -5.64178,-4.52615 -9.16992,-6.24414 -3.91865,-1.908132 -8.04075,-2.806022 -12.12305,-2.958982 -4.07933,-0.1528 -8.14504,0.43163 -12.04492,1.931642 -6.88122,2.64667 -11.87634,7.17452 -15.60742,11.429675 -7.53197,8.58997 -12.84393,19.13623 -18.07227,31.1875 -10.52941,24.27029 -20.22212,56.00822 -29.92968,87.51368 l -3.1211,10.12695 4.08594,1.25977 c -1.82191,5.8924 -3.64074,11.75817 -5.45117,17.48242 -8.19211,25.90204 -16.51031,49.76272 -23.650392,64.16406 -0.581199,1.17225 -1.12748,1.89242 -1.726563,2.95703 -2.84762,-5.34739 -5.953317,-11.73927 -9.25,-20.27344 -7.82012,-20.24408 -16.067531,-47.28669 -24.355469,-74.58789 -8.288022,-27.3014 -16.62753,-54.90105 -25.375,-77.58789 -4.368458,-11.32978 -8.817409,-21.4874 -13.896484,-30.20312 -3.842322,38.27638 -9.582463,92.8078 -1.291016,120.10937 z M 632.34961,134.59051 c -0.053,0.0127 -0.1312,0.0465 -0.18164,0.0586 -2.4167,0.57505 -2.38651,0.30696 -2.62891,0.20312 -0.0169,-0.002 -0.0271,-0.002 -0.0449,-0.004 0.96145,0.0309 1.90468,-0.0325 2.85547,-0.25781 z M 144.78516,239.92645 h 0.002 c -1.83307,5.92584 -3.66686,11.83674 -5.5,17.63281 1.83303,-5.79571 3.66543,-11.70742 5.49805,-17.63281 z m -72.333988,83.94336 c 1.553831,3.22893 3.110194,6.19081 4.671875,8.85937 3.361743,5.74451 6.093566,8.76931 8.671875,10.99805 -2.924145,-2.49557 -5.585702,-5.71777 -8.675781,-10.99805 -1.560871,-2.66718 -3.115005,-5.62988 -4.667969,-8.85937 z"
       sodipodi:nodetypes="csscssssscsssscsscsccccscccscscsscssssscsssssscccccscsssssssccscscsssssscsssccsscsccsscccsscsssccccccccccccscsc" />
    <path
       id="path1097"
       style="color:#000000;font-style:normal;font-variant:normal;font-weight:normal;font-stretch:normal;font-size:medium;line-height:normal;font-family:sans-serif;font-variant-ligatures:normal;font-variant-position:normal;font-variant-caps:normal;font-variant-numeric:normal;font-variant-alternates:normal;font-variant-east-asian:normal;font-feature-settings:normal;font-variation-settings:normal;text-indent:0;text-align:start;text-decoration:none;text-decoration-line:none;text-decoration-style:solid;text-decoration-color:#000000;letter-spacing:normal;word-spacing:normal;text-transform:none;writing-mode:lr-tb;direction:ltr;text-orientation:mixed;dominant-baseline:auto;baseline-shift:baseline;text-anchor:start;white-space:normal;shape-padding:0;shape-margin:0;inline-size:0;clip-rule:nonzero;display:inline;overflow:visible;visibility:visible;opacity:1;isolation:auto;mix-blend-mode:normal;color-interpolation:sRGB;color-interpolation-filters:linearRGB;solid-color:#000000;solid-opacity:1;vector-effect:none;fill:url(#linearGradient966-5);fill-opacity:1;fill-rule:nonzero;stroke:none;stroke-width:21.1922;stroke-linecap:butt;stroke-linejoin:miter;stroke-miterlimit:3.86644;stroke-dasharray:none;stroke-dashoffset:0;stroke-opacity:1;color-rendering:auto;image-rendering:auto;shape-rendering:auto;text-rendering:auto;enable-background:accumulate;stop-color:#000000;stop-opacity:1"
       d="m 27.142578,232.66668 c 8.28974,27.30705 16.600937,54.73943 25.123047,76.80078 4.26108,11.03067 8.550721,20.71203 13.175781,28.61524 4.62505,7.90321 9.213769,14.44407 17.011719,18.16602 4.12899,1.97086 9.254826,2.43153 13.572266,1.2539 4.317469,-1.17763 7.751599,-3.56241 10.677729,-6.30859 5.85228,-5.49236 10.24771,-12.81484 14.67383,-21.74219 8.85225,-17.85466 17.14595,-42.34506 25.48047,-68.69727 8.3345,-26.35221 16.61391,-54.46913 24.80078,-78.67968 8.18689,-24.21052 16.70682,-44.78387 23.45703,-54.25586 1.82848,-2.56573 2.63186,-3.21651 2.91797,-3.39258 0.38552,0.2569 2.33115,1.29303 4.97461,4.67187 6.46075,8.25805 14.81718,26.69714 22.86524,48.88672 5.68194,16.80198 11.43471,35.68647 17.20117,54.68164 8.28974,27.30705 16.60289,54.73943 25.125,76.80078 4.26108,11.03067 8.55072,20.71203 13.17578,28.61524 4.62505,7.90321 9.21377,14.44407 17.01172,18.16602 4.12899,1.97086 9.25287,2.43153 13.57031,1.2539 4.31747,-1.17763 7.75356,-3.56241 10.67969,-6.30859 5.85228,-5.49236 10.24771,-12.81484 14.67383,-21.74219 8.85225,-17.85466 17.14595,-42.34506 25.48047,-68.69727 8.3345,-26.35221 16.61391,-54.46913 24.80078,-78.67968 8.18689,-24.21052 16.70682,-44.78387 23.45703,-54.25586 1.82847,-2.56573 2.63186,-3.21651 2.91797,-3.39258 0.38551,0.2569 2.33114,1.29303 4.97461,4.67187 6.46074,8.25805 14.81717,26.69714 22.86523,48.88672 5.68195,16.80198 11.43471,35.68647 17.20117,54.68164 8.28974,27.30705 16.60289,54.73943 25.125,76.80078 4.26108,11.03067 8.54877,20.71203 13.17383,28.61524 4.62505,7.90321 9.21377,14.44407 17.01172,18.16602 4.12899,1.97086 9.25482,2.43153 13.57226,1.2539 4.31747,-1.17763 7.75356,-3.56241 10.67969,-6.30859 5.85228,-5.49236 10.24576,-12.81484 14.67188,-21.74219 8.85225,-17.85466 17.14595,-42.34506 25.48047,-68.69727 8.3345,-26.35221 16.61586,-54.46913 24.80273,-78.67968 8.18689,-24.21052 16.70487,-44.78387 23.45508,-54.25586 1.82989,-2.56772 2.63451,-3.21721 2.91992,-3.39258 0.38551,0.2569 2.33114,1.29303 4.97461,4.67187 6.56256,8.38818 15.07967,27.25957 23.24414,49.91797 16.32894,45.31683 32.74571,106.18888 50.04297,144.52539 3.91128,8.66859 7.92956,15.26574 13.07031,20.18946 5.14074,4.92373 12.39738,8.06245 19.42578,7.1582 7.02837,-0.90425 12.49037,-4.88253 17.04102,-9.62891 4.55067,-4.74638 8.48648,-10.62416 12.33789,-17.5 0.0413,-6.89576 0.0412,-30.20642 -0.5293,-51.34765 -6.15344,16.41577 -12.18435,30.67938 -17.96093,40.99218 -3.3104,5.90997 -6.53534,10.46795 -9.14649,13.19141 -2.61114,2.72345 -4.3119,3.25237 -4.44531,3.26953 -0.13351,0.017 -0.0396,0.49434 -2.06055,-1.4414 -2.02106,-1.93574 -5.16549,-6.39543 -8.41601,-13.59961 -15.85863,-35.14804 -32.59883,-96.29518 -49.42579,-142.99414 -8.41348,-23.34948 -16.47483,-42.98948 -26.49023,-55.79102 -5.0077,-6.40077 -11.04662,-12.05545 -19.875,-12.81055 -8.82841,-0.7551 -16.68834,4.89165 -21.96289,12.29297 -9.82773,13.79037 -17.88824,34.9513 -26.2793,59.76563 -8.39106,24.81433 -16.68625,53.0119 -24.92969,79.07617 -4.09561,12.94962 -8.20041,25.39238 -12.24414,36.55078 -3.62435,8.65522 -7.1866,16.29596 -10.65625,22.49023 -3.3104,5.90997 -6.53728,10.46795 -9.14843,13.19141 -2.61114,2.72345 -4.31191,3.25237 -4.44532,3.26953 -0.13351,0.017 -0.0396,0.49434 -2.06054,-1.4414 -2.02106,-1.93574 -5.1655,-6.39543 -8.41602,-13.59961 -15.85863,-35.14804 -32.59687,-96.29518 -49.42383,-142.99414 -0.0787,-0.21855 -0.15568,-0.42468 -0.23437,-0.64258 -2.55838,-7.55645 -5.1294,-14.81452 -7.7207,-21.53516 -4.2601,-11.04873 -8.54265,-20.75266 -13.16211,-28.67969 -4.61946,-7.92704 -9.20049,-14.47592 -16.95118,-18.25 -2.4064,-1.17176 -5.14696,-1.79599 -7.88085,-1.89843 -2.73388,-0.10236 -5.46185,0.31628 -7.84376,1.23242 -4.7638,1.83228 -8.30984,4.95368 -11.44335,8.52734 -6.26702,7.14733 -11.25454,16.75037 -16.31641,28.41797 -10.12374,23.33518 -19.81981,54.90623 -29.5293,86.41797 l 0.49219,0.15234 c -2.98989,9.70083 -5.97294,19.38675 -8.94727,28.79102 -4.09561,12.94962 -8.20236,25.39238 -12.24609,36.55078 -3.62435,8.65522 -7.1866,16.29596 -10.65625,22.49023 -3.3104,5.90997 -6.53729,10.46795 -9.14844,13.19141 -2.61114,2.72345 -4.3119,3.25237 -4.44531,3.26953 -0.13351,0.017 -0.0396,0.49434 -2.06055,-1.4414 -2.02106,-1.93574 -5.16354,-6.39543 -8.41406,-13.59961 -15.85863,-35.14804 -32.59882,-96.29518 -49.42578,-142.99414 -0.0793,-0.21996 -0.15713,-0.4272 -0.23633,-0.64649 -2.55792,-7.55496 -5.12791,-14.81182 -7.71875,-21.53125 -4.2601,-11.04873 -8.54265,-20.75266 -13.16211,-28.67969 -4.61946,-7.92704 -9.19853,-14.47592 -16.94922,-18.25 -2.4064,-1.17176 -5.14696,-1.79599 -7.88086,-1.89843 -2.73388,-0.10236 -5.46185,0.31628 -7.84375,1.23242 -4.7638,1.83228 -8.3118,4.95368 -11.44531,8.52734 -6.26702,7.14733 -11.25453,16.75037 -16.3164,28.41797 -10.12374,23.33518 -19.81981,54.90623 -29.5293,86.41797 l 0.49219,0.15234 c -2.98986,9.70073 -5.97298,19.38685 -8.94727,28.79102 -8.24343,26.06427 -16.53409,50.09331 -24.25977,65.67578 -3.862874,7.79124 -7.754701,13.41627 -10.191401,15.70313 -0.80226,0.75293 -0.900287,0.72685 -1.154297,0.86523 -0.98294,-0.74562 -4.00852,-3.5847 -7.3125,-9.23047 -3.66415,-6.26127 -7.668946,-15.11868 -11.697266,-25.54687 -8.05665,-20.85634 -16.322038,-48.01661 -24.611328,-75.32227 -8.28932,-27.30567 -16.60479,-54.75805 -25.125,-76.85547 0.923587,40.71343 2.787856,59.88589 4.84375,83.01367 z"
       sodipodi:nodetypes="csscsssssscscsssssssssscscsssssssssscssssssccsscsssssssscsscscscsssssssccscsscscscssscsssccssscssscc" />
    <path
       sodipodi:nodetypes="ccccccccccc"
       id="path1603"
       d="M 0,0 V 16.551725 480 H 800 V 0 Z m 29.629632,33.103449 740.570338,0 V 446.89655 l -740.570338,0 z"
       style="color:#000000;font-style:normal;font-variant:normal;font-weight:normal;font-stretch:normal;font-size:medium;line-height:normal;font-family:sans-serif;font-variant-ligatures:normal;font-variant-position:normal;font-variant-caps:normal;font-variant-numeric:normal;font-variant-alternates:normal;font-variant-east-asian:normal;font-feature-settings:normal;font-variation-settings:normal;text-indent:0;text-align:start;text-decoration:none;text-decoration-line:none;text-decoration-style:solid;text-decoration-color:#000000;letter-spacing:normal;word-spacing:normal;text-transform:none;writing-mode:lr-tb;direction:ltr;text-orientation:mixed;dominant-baseline:auto;baseline-shift:baseline;text-anchor:start;white-space:normal;shape-padding:0;shape-margin:0;inline-size:0;clip-rule:nonzero;display:inline;overflow:visible;visibility:visible;opacity:1;isolation:auto;mix-blend-mode:normal;color-interpolation:sRGB;color-interpolation-filters:linearRGB;solid-color:#000000;solid-opacity:1;vector-effect:none;fill:#000000;fill-opacity:1;fill-rule:nonzero;stroke:none;stroke-width:31.3184;stroke-linecap:round;stroke-linejoin:miter;stroke-miterlimit:3.86644;stroke-dasharray:none;stroke-dashoffset:0;stroke-opacity:1;color-rendering:auto;image-rendering:auto;shape-rendering:auto;text-rendering:auto;enable-background:accumulate;stop-color:#000000;stop-opacity:1" />
  </g>
</svg>
